# xmcd CD database file
#
# Track frame offsets:
#	150
#	16513
#	31661
#	45764
#	70040
#	96942
#	110442
#	138273
#	166534
#	188574
#	219814
#	240573
#	258859
#	279955
#
# Disc length: 3893 seconds
#
# Revision: 0
# Processed by: cddbd v1.5.1PL0 Copyright (c) Steve Scherf et al.
# Submitted via: CDex 1.51
#
DISCID=980f330e
DTITLE=Various Artist - Bar Jazz 6 [CD 3) - 'Round Midnight
DYEAR=2005
DGENRE=Jazz
TTITLE0=Henry Mancini and His Orchestra - Misty
TTITLE1=Benny Goodman Trio - Body And Soul
TTITLE2=Duke Ellington - Mood Indigo
TTITLE3=Cleo Laine - Dreamsville
TTITLE4=Stanley Clarke - Lucky Again
TTITLE5=Lisa Ekdahl - I'm A Fool To Want You
TTITLE6=Ellis and Branford Marsalis - Maria
TTITLE7=Paul Desmond - Angel Eyes
TTITLE8=Carmen McRae - How I Wish ...
TTITLE9=Earl Hines Quartet - It Had To Be You
TTITLE10=Warren Hill - It's Always Been You
TTITLE11=Gary Burton - Sing Me Softly Of The Blues
TTITLE12=Etta James - At Last
TTITLE13=Chet Baker - What A Difference A Day Makes
EXTD=YEAR: 2005
EXTT0=
EXTT1=
EXTT2=
EXTT3=
EXTT4=
EXTT5=
EXTT6=
EXTT7=
EXTT8=
EXTT9=
EXTT10=
EXTT11=
EXTT12=
EXTT13=
PLAYORDER=
